<svg width="24" height="26" viewBox="0 0 24 26" fill="none" xmlns="http://www.w3.org/2000/svg">
<path fill-rule="evenodd" clip-rule="evenodd" d="M11.745 12.022C11.8239 12.0036 11.8937 11.9575 11.9417 11.8922C11.9897 11.8268 12.0128 11.7465 12.0067 11.6656C12.0007 11.5847 11.966 11.5087 11.9088 11.4512C11.8516 11.3937 11.7758 11.3585 11.695 11.352C10.8934 11.389 10.1028 11.1537 9.45192 10.6843C8.80103 10.215 8.32807 9.53925 8.10996 8.767C7.82019 7.78928 7.79947 6.75151 8.04997 5.763C8.1023 5.8088 8.15928 5.84902 8.21997 5.883C9.24401 6.30256 10.3654 6.42566 11.4561 6.23822C12.5468 6.05078 13.5627 5.56037 14.388 4.823C14.5713 5.21633 14.798 5.583 15.068 5.923C15.85 6.674 17.151 6.815 17.452 7.275C17.4792 7.33771 17.5293 7.38774 17.592 7.415C17.3948 8.48304 16.8657 9.46164 16.08 10.2114C15.2943 10.9613 14.292 11.444 13.216 11.591C13.1504 11.6162 13.0957 11.6637 13.0615 11.725C13.0274 11.7864 13.0158 11.8579 13.0289 11.9269C13.042 11.9959 13.0789 12.0582 13.1332 12.1028C13.1875 12.1474 13.2557 12.1715 13.326 12.171C21.016 10.84 19.654 0.666999 13.266 1.007C4.21497 1.7 5.86697 12.503 11.745 12.022ZM17.652 6.335C16.733 5.63774 15.7733 4.99594 14.778 4.413C15.2226 3.94367 15.6333 3.44633 16.01 2.921C16.5066 3.33752 16.9097 3.85432 17.1926 4.4375C17.4756 5.02069 17.6321 5.65709 17.652 6.305V6.335ZM15.419 2.55C14.4778 3.63755 13.2654 4.45633 11.905 4.923C11.004 5.203 9.00097 5.554 8.34997 5.113C8.36306 5.07066 8.36306 5.02534 8.34997 4.983C9.55197 2.4 13.487 1.55 15.42 2.55" fill="black"/>
<path d="M15.419 2.55C14.4778 3.63755 13.2654 4.45633 11.905 4.923C11.004 5.203 9.00097 5.554 8.34997 5.113C8.36306 5.07066 8.36306 5.02534 8.34997 4.983C9.55197 2.4 13.487 1.55 15.42 2.55M11.745 12.022C11.8239 12.0036 11.8937 11.9575 11.9417 11.8922C11.9897 11.8268 12.0128 11.7465 12.0067 11.6656C12.0007 11.5847 11.966 11.5087 11.9088 11.4512C11.8516 11.3937 11.7758 11.3585 11.695 11.352C10.8934 11.389 10.1028 11.1537 9.45192 10.6843C8.80103 10.215 8.32807 9.53925 8.10996 8.767C7.82019 7.78928 7.79947 6.75151 8.04997 5.763C8.1023 5.8088 8.15928 5.84902 8.21997 5.883C9.24401 6.30256 10.3654 6.42566 11.4561 6.23822C12.5468 6.05078 13.5627 5.56037 14.388 4.823C14.5713 5.21633 14.798 5.583 15.068 5.923C15.85 6.674 17.151 6.815 17.452 7.275C17.4792 7.33771 17.5293 7.38774 17.592 7.415C17.3948 8.48304 16.8657 9.46164 16.08 10.2114C15.2943 10.9613 14.292 11.444 13.216 11.591C13.1504 11.6162 13.0957 11.6637 13.0615 11.725C13.0274 11.7864 13.0158 11.8579 13.0289 11.9269C13.042 11.9959 13.0789 12.0582 13.1332 12.1028C13.1875 12.1474 13.2557 12.1715 13.326 12.171C21.016 10.84 19.654 0.666999 13.266 1.007C4.21497 1.7 5.86697 12.503 11.745 12.022ZM17.652 6.335C16.733 5.63774 15.7733 4.99594 14.778 4.413C15.2226 3.94367 15.6333 3.44633 16.01 2.921C16.5066 3.33752 16.9097 3.85432 17.1926 4.4375C17.4756 5.02069 17.6321 5.65709 17.652 6.305V6.335Z" stroke="black" stroke-width="0.4"/>
<path fill-rule="evenodd" clip-rule="evenodd" d="M11.104 8.197C11.1347 8.22814 11.1713 8.25287 11.2116 8.26975C11.2519 8.28663 11.2952 8.29532 11.339 8.29532C11.3827 8.29532 11.426 8.28663 11.4663 8.26975C11.5067 8.25287 11.5433 8.22814 11.574 8.197C11.824 7.957 11.494 6.675 10.383 6.776C9.10098 6.916 9.10098 8.318 9.67198 8.237C10.242 8.157 10.282 7.126 11.104 8.197ZM15.66 8.338C15.91 8.098 15.319 6.515 14.318 6.655C13.737 6.815 13.076 7.787 13.447 8.007C13.4845 8.04729 13.532 8.07686 13.5848 8.09267C13.6375 8.10849 13.6935 8.10999 13.747 8.097C13.8186 8.08955 13.8849 8.05574 13.9329 8.00214C13.981 7.94854 14.0074 7.87899 14.007 7.807C14.778 7.217 15.099 8.858 15.659 8.337M13.787 10.02C13.8329 9.95303 13.8533 9.87182 13.8446 9.79109C13.8359 9.71035 13.7985 9.63541 13.7393 9.57982C13.6801 9.52424 13.6029 9.49169 13.5218 9.48805C13.4407 9.48441 13.3609 9.50994 13.297 9.56C13.097 9.7 12.876 9.67 12.165 9.67C11.9578 9.72444 11.7379 9.70316 11.545 9.61C11.4938 9.55279 11.4224 9.51776 11.3458 9.51235C11.2693 9.50694 11.1937 9.53157 11.135 9.58102C11.0763 9.63046 11.0392 9.70084 11.0315 9.77719C11.0239 9.85355 11.0463 9.92989 11.094 9.99C11.2272 10.2286 11.4211 10.4278 11.656 10.5675C11.8909 10.7071 12.1585 10.7823 12.4318 10.7853C12.7051 10.7884 12.9743 10.7192 13.2122 10.5848C13.4502 10.4504 13.6485 10.2556 13.787 10.02ZM19.694 22.455C17.7892 22.6701 15.915 23.1002 14.107 23.737C13.5763 23.9123 13.0556 24.1157 12.545 24.347C12.605 24.167 13.266 15.557 12.805 15.106C12.709 14.991 12.5734 14.9161 12.425 14.896C11.715 14.826 10.933 13.194 8.54998 12.413C7.48457 12.1118 6.38313 11.9571 5.27598 11.953C4.90598 11.953 4.16498 11.882 3.98498 12.233C3.96729 12.2813 3.96151 12.3332 3.96814 12.3842C3.97477 12.4352 3.9936 12.4839 4.02304 12.5261C4.05247 12.5683 4.09165 12.6028 4.13725 12.6266C4.18285 12.6504 4.23353 12.6629 4.28498 12.663H5.18598C7.85998 13.313 9.46198 13.544 11.684 15.366C12.365 16.007 11.604 18.01 11.884 23.917C11.1553 23.6179 10.4018 23.3837 9.63198 23.217C7.75898 22.535 6.15698 22.746 4.38498 22.535H3.11398C2.67298 22.535 2.55298 22.535 2.55298 21.835C2.55298 20.833 2.86298 20.293 2.39298 20.253C2.31554 20.2499 2.23974 20.2758 2.18051 20.3258C2.12128 20.3758 2.08291 20.4461 2.07298 20.523C1.95298 21.594 1.25098 22.936 2.73298 23.397C3.22364 23.4883 3.71764 23.5517 4.21498 23.587C5.96698 23.927 7.73898 23.687 9.35098 24.107C10.2689 24.5603 11.2645 24.8355 12.285 24.918C12.285 25.028 12.645 25.328 19.665 23.266C19.8796 23.1633 20.073 23.03 20.245 22.866C20.2699 22.7938 20.2712 22.7156 20.2487 22.6426C20.2262 22.5696 20.181 22.5057 20.1198 22.46C20.0586 22.4144 19.9844 22.3894 19.908 22.3887C19.8317 22.3879 19.7571 22.4115 19.695 22.456" fill="black"/>
<path d="M15.66 8.338C15.91 8.098 15.319 6.515 14.318 6.655C13.737 6.815 13.076 7.787 13.447 8.007C13.4845 8.04729 13.532 8.07686 13.5848 8.09267C13.6375 8.10849 13.6935 8.10999 13.747 8.097C13.8186 8.08955 13.8849 8.05574 13.9329 8.00214C13.981 7.94854 14.0074 7.87899 14.007 7.807C14.778 7.217 15.099 8.858 15.659 8.337M19.694 22.455C17.7892 22.6701 15.915 23.1002 14.107 23.737C13.5763 23.9123 13.0556 24.1157 12.545 24.347C12.605 24.167 13.266 15.557 12.805 15.106C12.709 14.991 12.5734 14.9161 12.425 14.896C11.715 14.826 10.933 13.194 8.54998 12.413C7.48457 12.1118 6.38313 11.9571 5.27598 11.953C4.90598 11.953 4.16498 11.882 3.98498 12.233C3.96729 12.2813 3.96151 12.3332 3.96814 12.3842C3.97477 12.4352 3.9936 12.4839 4.02304 12.5261C4.05247 12.5683 4.09165 12.6028 4.13725 12.6266C4.18285 12.6504 4.23353 12.6629 4.28498 12.663H5.18598C7.85998 13.313 9.46198 13.544 11.684 15.366C12.365 16.007 11.604 18.01 11.884 23.917C11.1553 23.6179 10.4018 23.3837 9.63198 23.217C7.75898 22.535 6.15698 22.746 4.38498 22.535H3.11398C2.67298 22.535 2.55298 22.535 2.55298 21.835C2.55298 20.833 2.86298 20.293 2.39298 20.253C2.31554 20.2499 2.23974 20.2758 2.18051 20.3258C2.12128 20.3758 2.08291 20.4461 2.07298 20.523C1.95298 21.594 1.25098 22.936 2.73298 23.397C3.22364 23.4883 3.71764 23.5517 4.21498 23.587C5.96698 23.927 7.73898 23.687 9.35098 24.107C10.2689 24.5603 11.2645 24.8355 12.285 24.918C12.285 25.028 12.645 25.328 19.665 23.266C19.8796 23.1633 20.073 23.03 20.245 22.866C20.2699 22.7938 20.2712 22.7156 20.2487 22.6426C20.2262 22.5696 20.181 22.5057 20.1198 22.46C20.0586 22.4144 19.9844 22.3894 19.908 22.3887C19.8317 22.3879 19.7571 22.4115 19.695 22.456M11.104 8.197C11.1347 8.22814 11.1713 8.25287 11.2116 8.26975C11.2519 8.28663 11.2952 8.29532 11.339 8.29532C11.3827 8.29532 11.426 8.28663 11.4663 8.26975C11.5067 8.25287 11.5433 8.22814 11.574 8.197C11.824 7.957 11.494 6.675 10.383 6.776C9.10098 6.916 9.10098 8.318 9.67198 8.237C10.242 8.157 10.282 7.126 11.104 8.197ZM13.787 10.02C13.8329 9.95303 13.8533 9.87182 13.8446 9.79109C13.8359 9.71035 13.7985 9.63541 13.7393 9.57982C13.6801 9.52424 13.6029 9.49169 13.5218 9.48805C13.4407 9.48441 13.3609 9.50994 13.297 9.56C13.097 9.7 12.876 9.67 12.165 9.67C11.9578 9.72444 11.7379 9.70316 11.545 9.61C11.4938 9.55279 11.4224 9.51776 11.3458 9.51235C11.2693 9.50694 11.1937 9.53157 11.135 9.58102C11.0763 9.63046 11.0392 9.70084 11.0315 9.77719C11.0239 9.85355 11.0463 9.92989 11.094 9.99C11.2272 10.2286 11.4211 10.4278 11.656 10.5675C11.8909 10.7071 12.1585 10.7823 12.4318 10.7853C12.7051 10.7884 12.9743 10.7192 13.2122 10.5848C13.4502 10.4504 13.6485 10.2556 13.787 10.02Z" stroke="black" stroke-width="0.4"/>
<path fill-rule="evenodd" clip-rule="evenodd" d="M6.08698 16.408C5.99698 16.028 5.86698 15.336 5.33698 15.026C4.28241 14.6473 3.12394 14.6794 2.09198 15.116C1.75849 15.4101 1.49725 15.777 1.32852 16.1884C1.1598 16.5998 1.08813 17.0445 1.11908 17.488C1.15003 17.9316 1.28277 18.3621 1.50699 18.746C1.73121 19.13 2.04088 19.4571 2.41198 19.702C2.76315 20.0082 3.19066 20.2135 3.64914 20.2963C4.10761 20.379 4.57994 20.3361 5.01598 20.172C6.33798 19.462 6.50798 17.869 6.08698 16.408ZM4.46498 19.21C4.36405 19.254 4.25511 19.2768 4.14498 19.2768C4.03485 19.2768 3.92591 19.254 3.82498 19.21C1.66198 18.63 1.53198 16.637 2.56298 15.596C3.25298 15.996 4.34498 15.456 4.84598 15.796C4.99598 15.916 5.72498 18.509 4.46498 19.21ZM2.99298 14.165C3.13298 13.324 3.26298 12.162 2.70298 12.162C2.61298 12.162 2.49298 12.162 2.43298 12.252C2.24148 12.8548 2.14038 13.4826 2.13298 14.115C2.18298 14.815 2.93298 14.685 2.99298 14.165ZM20.415 13.023C20.515 13.464 20.585 13.804 20.645 14.085C20.895 14.765 21.557 14.575 21.437 13.805C21.2986 13.2863 21.2049 12.7567 21.157 12.222C21.1368 11.9174 21.0209 11.6269 20.826 11.392C20.6476 11.2416 20.4178 11.1663 20.185 11.182C19.0206 11.3288 17.88 11.6245 16.791 12.062C16.01 12.372 12.786 13.975 12.716 14.555C12.7116 14.6341 12.7358 14.7122 12.7843 14.7749C12.8327 14.8377 12.9021 14.8809 12.9798 14.8967C13.0575 14.9124 13.1382 14.8997 13.2073 14.8609C13.2764 14.822 13.3291 14.7596 13.356 14.685C15.2177 13.7499 17.1706 13.0087 19.184 12.473C19.914 12.273 20.084 11.642 20.415 13.023ZM20.756 20.803C20.7281 21.5102 20.8159 22.2171 21.016 22.896C21.106 23.016 21.466 23.096 21.626 22.626C21.783 22.076 21.85 21.505 21.827 20.933C21.7846 20.832 21.7162 20.744 21.6288 20.6779C21.5413 20.6119 21.438 20.5701 21.3292 20.5569C21.2205 20.5437 21.1101 20.5596 21.0095 20.6028C20.9088 20.646 20.8213 20.7151 20.756 20.803ZM22.868 16.488C22.7876 15.8745 22.4852 15.3116 22.018 14.906C21.908 14.806 21.828 14.826 21.617 14.816C21.4709 14.8087 21.3248 14.8305 21.1873 14.8803C21.0497 14.9301 20.9235 15.0068 20.816 15.106C20.376 16.107 19.214 15.446 18.403 16.107C18.1975 16.3172 18.0436 16.5721 17.9534 16.8518C17.8632 17.1316 17.8391 17.4284 17.883 17.719C18.0783 18.5739 18.5491 19.3409 19.223 19.902C19.4287 20.1081 19.6861 20.2549 19.9682 20.3271C20.2503 20.3992 20.5466 20.394 20.826 20.312C22.278 19.882 23.019 17.739 22.868 16.488ZM20.015 19.031C19.6646 18.4669 19.3308 17.8927 19.014 17.309C19.014 16.969 19.014 16.799 19.224 16.719C19.804 16.448 21.126 16.468 21.557 15.286C21.7656 15.4876 21.9261 15.7336 22.0265 16.0058C22.1269 16.2779 22.1647 16.5692 22.137 16.858C22.0496 17.4479 21.8346 18.0117 21.507 18.51C21.147 19.031 20.435 19.502 20.015 19.031Z" fill="black" stroke="black" stroke-width="0.4"/>
</svg>
