<svg width="16" height="16" viewBox="0 0 16 16" fill="none" xmlns="http://www.w3.org/2000/svg">
<path d="M8.00004 1.33331C11.682 1.33331 14.6667 4.31798 14.6667 7.99998C14.6667 11.682 11.682 14.6666 8.00004 14.6666C4.31804 14.6666 1.33337 11.682 1.33337 7.99998C1.33337 4.31798 4.31804 1.33331 8.00004 1.33331ZM8.00004 2.66665C6.58555 2.66665 5.229 3.22855 4.2288 4.22874C3.22861 5.22894 2.66671 6.58549 2.66671 7.99998C2.66671 9.41447 3.22861 10.771 4.2288 11.7712C5.229 12.7714 6.58555 13.3333 8.00004 13.3333C9.41453 13.3333 10.7711 12.7714 11.7713 11.7712C12.7715 10.771 13.3334 9.41447 13.3334 7.99998C13.3334 6.58549 12.7715 5.22894 11.7713 4.22874C10.7711 3.22855 9.41453 2.66665 8.00004 2.66665ZM8.00004 10.6666C8.17685 10.6666 8.34642 10.7369 8.47144 10.8619C8.59647 10.9869 8.66671 11.1565 8.66671 11.3333C8.66671 11.5101 8.59647 11.6797 8.47144 11.8047C8.34642 11.9297 8.17685 12 8.00004 12C7.82323 12 7.65366 11.9297 7.52864 11.8047C7.40361 11.6797 7.33337 11.5101 7.33337 11.3333C7.33337 11.1565 7.40361 10.9869 7.52864 10.8619C7.65366 10.7369 7.82323 10.6666 8.00004 10.6666ZM8.00004 4.33331C8.56156 4.33333 9.10555 4.52888 9.53856 4.88638C9.97157 5.24388 10.2666 5.741 10.3729 6.29236C10.4792 6.84373 10.3903 7.4149 10.1212 7.90779C9.85221 8.40067 9.41995 8.78449 8.89871 8.99331C8.8215 9.0217 8.75191 9.06756 8.69537 9.12731C8.66604 9.16065 8.66137 9.20331 8.66204 9.24731L8.66671 9.33331C8.66652 9.50323 8.60145 9.66667 8.48481 9.79023C8.36816 9.91378 8.20874 9.98814 8.03911 9.99809C7.86948 10.0081 7.70245 9.95286 7.57215 9.8438C7.44185 9.73474 7.35811 9.58004 7.33804 9.41131L7.33337 9.33331V9.16665C7.33337 8.39798 7.95337 7.93665 8.40271 7.75598C8.58558 7.68295 8.74511 7.56149 8.86416 7.40464C8.98322 7.24778 9.05729 7.06146 9.07844 6.86568C9.09958 6.6699 9.067 6.47206 8.98419 6.29341C8.90138 6.11475 8.77146 5.96202 8.6084 5.85163C8.44533 5.74124 8.25528 5.67735 8.05864 5.66683C7.86201 5.6563 7.66622 5.69954 7.4923 5.79189C7.31839 5.88425 7.17291 6.02223 7.0715 6.19103C6.97009 6.35983 6.91658 6.55306 6.91671 6.74998C6.91671 6.92679 6.84647 7.09636 6.72144 7.22138C6.59642 7.34641 6.42685 7.41665 6.25004 7.41665C6.07323 7.41665 5.90366 7.34641 5.77864 7.22138C5.65361 7.09636 5.58337 6.92679 5.58337 6.74998C5.58337 6.10904 5.83799 5.49435 6.2912 5.04114C6.74441 4.58793 7.3591 4.33331 8.00004 4.33331Z" fill="white"/>
</svg>
