<svg width="24" height="24" viewBox="0 0 24 24" fill="none" xmlns="http://www.w3.org/2000/svg">
<path d="M13.5 5.5C14.6 5.5 15.5 4.6 15.5 3.5C15.5 2.4 14.6 1.5 13.5 1.5C12.4 1.5 11.5 2.4 11.5 3.5C11.5 4.6 12.4 5.5 13.5 5.5ZM17.5 10.78C16.27 10.41 15.28 9.61 14.7 8.6L13.7 7C13.29 6.35 12.59 6 11.86 6C11.08 6 10.27 6.5 10.08 7.44C9.89003 8.38 7.00003 23 7.00003 23H9.10003L10.9 15L13 17V23H15V15.5L12.9 13.5L13.5 10.5C14.5 11.65 15.91 12.51 17.5 12.84V23H19V9H17.5V10.78ZM7.43003 13.13L5.31003 12.72C5.05034 12.6692 4.82139 12.5175 4.67331 12.2982C4.52524 12.0789 4.47012 11.8099 4.52003 11.55L5.28003 7.62C5.38167 7.10063 5.68501 6.64272 6.12361 6.34657C6.56221 6.05042 7.10031 5.94018 7.62003 6.04L8.78003 6.27L7.43003 13.13Z" fill="black"/>
</svg>
