<svg width="29" height="29" viewBox="0 0 29 29" fill="none" xmlns="http://www.w3.org/2000/svg">
<path d="M24.1788 7.12133C24.1023 7.06053 24.0109 7.02146 23.9141 7.00822C23.8173 6.99498 23.7187 7.00807 23.6287 7.04611L14.8743 10.837C14.4937 11.0028 14.017 11.0816 13.5277 11.0816C12.8452 11.0844 12.1393 10.9258 11.6472 10.7101C11.4972 10.6471 11.3544 10.5681 11.2212 10.4745C11.2581 10.4563 11.3019 10.437 11.3527 10.4165L19.315 6.96908L20.5022 7.47658V5.99305C20.5036 5.88731 20.4813 5.78258 20.4369 5.68659C20.3926 5.5906 20.3272 5.5058 20.2457 5.43842C20.1699 5.37707 20.0787 5.33762 19.982 5.32436C19.8854 5.3111 19.787 5.32454 19.6974 5.36321L10.943 9.15405C10.673 9.2628 10.441 9.39693 10.2452 9.59177C10.0188 9.81557 9.8901 10.1199 9.88725 10.4382C9.88725 10.4473 9.88997 10.4627 9.88997 10.4627V23.8117L9.88815 23.8299L9.89087 23.8389V23.8534H9.89268C9.91081 24.3201 10.1464 24.6174 10.3712 24.8276C11.0781 25.4511 12.2652 25.8001 13.5286 25.8182C14.1267 25.8182 14.7339 25.7276 15.2957 25.4865L24.0528 21.6947C24.2839 21.5951 24.4353 21.3476 24.4353 21.0676V7.67596C24.4367 7.57021 24.4145 7.46549 24.3701 7.3695C24.3257 7.27351 24.2603 7.18871 24.1788 7.12133ZM18.6262 4.58383C18.6108 4.38446 18.5283 4.19414 18.3815 4.07996C18.3051 4.01915 18.2136 3.98008 18.1168 3.96685C18.02 3.95361 17.9214 3.9667 17.8314 4.00474L9.07706 7.79377C8.69643 7.95871 8.21884 8.03846 7.73037 8.03846C7.04797 8.04027 6.342 7.88168 5.8499 7.66508C5.69995 7.60264 5.55715 7.52425 5.42397 7.43127C5.46082 7.41314 5.50462 7.39381 5.55537 7.37327L13.5186 3.92589L14.7058 4.43339V2.95167C14.7071 2.84586 14.6847 2.74109 14.6402 2.64509C14.5956 2.5491 14.5301 2.46434 14.4484 2.39705C14.372 2.33641 14.2807 2.29744 14.1841 2.2842C14.0875 2.27097 13.9891 2.28397 13.8992 2.32183L5.14484 6.11358C4.87478 6.22233 4.64368 6.35555 4.44703 6.5513C4.22094 6.77525 4.09258 7.07952 4.08997 7.39774C4.08997 7.40861 4.09268 7.42311 4.09268 7.42311V20.8148H4.0945C4.11262 21.2815 4.34825 21.5787 4.573 21.789C5.27987 22.4125 6.46706 22.7605 7.73128 22.7786C8.07459 22.7764 8.41679 22.7394 8.75262 22.6681V10.4618C8.74356 9.82739 8.99731 9.21839 9.44318 8.77977C9.75247 8.48061 10.1194 8.2475 10.5216 8.09464L18.6262 4.58383Z" fill="black"/>
</svg>
